<?xml version="1.0" standalone="no"?>
<!DOCTYPE svg PUBLIC "-//W3C//DTD SVG 20010904//EN"
 "http://www.w3.org/TR/2001/REC-SVG-20010904/DTD/svg10.dtd">
<svg version="1.0" xmlns="http://www.w3.org/2000/svg"
 width="123.000000pt" height="141.000000pt" viewBox="0 0 123.000000 141.000000"
 preserveAspectRatio="xMidYMid meet">

<g transform="translate(0.000000,141.000000) scale(0.100000,-0.100000)"
fill="#000000" stroke="none">
<path d="M825 1135 c-5 -2 -23 -7 -40 -11 l-30 -8 34 -5 c19 -3 37 -13 42 -21
26 -50 41 -90 46 -126 5 -38 2 -44 -40 -88 -39 -41 -50 -47 -78 -44 -25 2 -34
-1 -37 -14 -2 -9 5 -21 15 -27 30 -15 79 15 115 70 32 50 58 63 58 32 1 -10
13 -36 28 -58 23 -33 35 -41 65 -43 22 -2 46 3 59 12 22 16 22 16 -13 16 -47
0 -64 15 -94 83 -32 73 -31 79 5 132 33 48 55 59 94 49 23 -5 26 -3 26 19 0
59 -68 37 -118 -38 -19 -28 -37 -51 -42 -53 -4 -2 -15 18 -24 44 -15 45 -42
85 -55 83 -3 0 -10 -2 -16 -4z"/>
<path d="M317 906 c-82 -30 -153 -102 -190 -192 -29 -73 -28 -229 3 -308 25
-66 77 -123 142 -158 36 -19 58 -23 138 -23 105 0 162 16 238 67 33 23 42 35
42 58 0 35 -3 36 -39 11 -92 -66 -221 -80 -306 -33 -75 41 -108 101 -122 220
l-6 52 238 0 238 0 -5 73 c-8 113 -53 183 -148 226 -53 24 -164 28 -223 7z
m191 -73 c41 -39 62 -90 62 -150 l0 -33 -171 0 -171 0 7 48 c9 62 31 99 84
139 36 28 51 33 96 33 49 0 58 -4 93 -37z"/>
</g>
</svg>
